<?xml version="1.0" encoding="UTF-8" standalone="no"?>
<!DOCTYPE svg PUBLIC "-//W3C//DTD SVG 1.1//EN"
 "http://www.w3.org/Graphics/SVG/1.1/DTD/svg11.dtd">
<!-- Generated by graphviz version 2.47.3 (20210619.1520)
 -->
<!-- Title: dfa Pages: 1 -->
<svg width="503pt" height="158pt"
 viewBox="0.00 0.00 503.00 158.00" xmlns="http://www.w3.org/2000/svg" xmlns:xlink="http://www.w3.org/1999/xlink">
<g id="graph0" class="graph" transform="scale(1 1) rotate(0) translate(4 154)">
<title>dfa</title>
<polygon fill="white" stroke="transparent" points="-4,4 -4,-154 499,-154 499,4 -4,4"/>
<!-- 0 -->
<g id="node1" class="node">
<title>0</title>
<ellipse fill="none" stroke="black" cx="27" cy="-75" rx="27" ry="18"/>
<text text-anchor="middle" x="27" y="-71.3" font-family="Times New Roman,serif" font-size="14.00">0</text>
</g>
<!-- 1 -->
<g id="node2" class="node">
<title>1</title>
<ellipse fill="none" stroke="black" cx="132" cy="-75" rx="27" ry="18"/>
<text text-anchor="middle" x="132" y="-71.3" font-family="Times New Roman,serif" font-size="14.00">1</text>
</g>
<!-- 0&#45;&gt;1 -->
<g id="edge1" class="edge">
<title>0&#45;&gt;1</title>
<path fill="none" stroke="black" d="M54.26,-75C66.49,-75 81.24,-75 94.52,-75"/>
<polygon fill="black" stroke="black" points="94.79,-78.5 104.79,-75 94.79,-71.5 94.79,-78.5"/>
<text text-anchor="middle" x="79.5" y="-78.8" font-family="Times New Roman,serif" font-size="14.00">/\*</text>
</g>
<!-- 1&#45;&gt;1 -->
<g id="edge2" class="edge">
<title>1&#45;&gt;1</title>
<path fill="none" stroke="black" d="M122.79,-92.04C120.91,-101.86 123.98,-111 132,-111 137.01,-111 140.09,-107.43 141.24,-102.35"/>
<polygon fill="black" stroke="black" points="144.74,-102.03 141.21,-92.04 137.74,-102.05 144.74,-102.03"/>
<text text-anchor="middle" x="132" y="-114.8" font-family="Times New Roman,serif" font-size="14.00">[^&quot;\*]</text>
</g>
<!-- 2 -->
<g id="node3" class="node">
<title>2</title>
<ellipse fill="none" stroke="black" cx="258" cy="-99" rx="27" ry="18"/>
<text text-anchor="middle" x="258" y="-95.3" font-family="Times New Roman,serif" font-size="14.00">2</text>
</g>
<!-- 1&#45;&gt;2 -->
<g id="edge3" class="edge">
<title>1&#45;&gt;2</title>
<path fill="none" stroke="black" d="M155.51,-84.41C162.31,-86.91 169.87,-89.37 177,-91 191.1,-94.22 206.89,-96.14 220.69,-97.29"/>
<polygon fill="black" stroke="black" points="220.57,-100.79 230.79,-98.03 221.08,-93.81 220.57,-100.79"/>
<text text-anchor="middle" x="195" y="-99.8" font-family="Times New Roman,serif" font-size="14.00">\*</text>
</g>
<!-- 3 -->
<g id="node4" class="node">
<title>3</title>
<ellipse fill="none" stroke="black" cx="355" cy="-51" rx="27" ry="18"/>
<text text-anchor="middle" x="355" y="-47.3" font-family="Times New Roman,serif" font-size="14.00">3</text>
</g>
<!-- 1&#45;&gt;3 -->
<g id="edge4" class="edge">
<title>1&#45;&gt;3</title>
<path fill="none" stroke="black" d="M157.56,-68.33C163.86,-66.76 170.66,-65.2 177,-64 225.22,-54.88 281.96,-52.08 317.94,-51.26"/>
<polygon fill="black" stroke="black" points="318.03,-54.76 327.97,-51.07 317.9,-47.76 318.03,-54.76"/>
<text text-anchor="middle" x="258" y="-59.8" font-family="Times New Roman,serif" font-size="14.00">&quot;</text>
</g>
<!-- 2&#45;&gt;1 -->
<g id="edge5" class="edge">
<title>2&#45;&gt;1</title>
<path fill="none" stroke="black" d="M239.65,-85.29C231.95,-80.04 222.49,-74.68 213,-72 198.82,-68 182.67,-67.82 168.61,-68.99"/>
<polygon fill="black" stroke="black" points="167.9,-65.55 158.34,-70.11 168.66,-72.51 167.9,-65.55"/>
<text text-anchor="middle" x="195" y="-75.8" font-family="Times New Roman,serif" font-size="14.00">[^&quot;\*/]</text>
</g>
<!-- 2&#45;&gt;2 -->
<g id="edge6" class="edge">
<title>2&#45;&gt;2</title>
<path fill="none" stroke="black" d="M249.43,-116.41C247.83,-126.09 250.69,-135 258,-135 262.57,-135 265.4,-131.52 266.49,-126.54"/>
<polygon fill="black" stroke="black" points="269.99,-126.44 266.57,-116.41 262.99,-126.38 269.99,-126.44"/>
<text text-anchor="middle" x="258" y="-138.8" font-family="Times New Roman,serif" font-size="14.00">\*</text>
</g>
<!-- 2&#45;&gt;3 -->
<g id="edge7" class="edge">
<title>2&#45;&gt;3</title>
<path fill="none" stroke="black" d="M279.54,-88.12C286.91,-84.26 295.31,-79.89 303,-76 309.5,-72.71 316.5,-69.23 323.17,-65.96"/>
<polygon fill="black" stroke="black" points="325.16,-68.88 332.6,-61.34 322.08,-62.59 325.16,-68.88"/>
<text text-anchor="middle" x="306.5" y="-79.8" font-family="Times New Roman,serif" font-size="14.00">&quot;</text>
</g>
<!-- e -->
<g id="node5" class="node">
<title>e</title>
<ellipse fill="none" stroke="black" cx="468" cy="-78" rx="27" ry="18"/>
<text text-anchor="middle" x="468" y="-74.3" font-family="Times New Roman,serif" font-size="14.00">e</text>
</g>
<!-- 2&#45;&gt;e -->
<g id="edge8" class="edge">
<title>2&#45;&gt;e</title>
<path fill="none" stroke="black" d="M284.91,-97.37C317.28,-95.2 374.35,-90.94 423,-85 425.71,-84.67 428.52,-84.3 431.33,-83.9"/>
<polygon fill="black" stroke="black" points="432.08,-87.33 441.45,-82.39 431.04,-80.4 432.08,-87.33"/>
<text text-anchor="middle" x="355" y="-97.8" font-family="Times New Roman,serif" font-size="14.00">/</text>
</g>
<!-- 3&#45;&gt;3 -->
<g id="edge9" class="edge">
<title>3:s&#45;&gt;3</title>
<path fill="none" stroke="black" d="M355,-33C343,-27 343,-15 355,-15 359.57,-15 362.4,-18.48 363.49,-23.46"/>
<polygon fill="black" stroke="black" points="359.99,-23.62 363.57,-33.59 366.99,-23.56 359.99,-23.62"/>
<text text-anchor="middle" x="355" y="-3.8" font-family="Times New Roman,serif" font-size="14.00">[^\*]|\*+([^\*/]|/.*&quot;)</text>
</g>
<!-- 3&#45;&gt;e -->
<g id="edge10" class="edge">
<title>3&#45;&gt;e</title>
<path fill="none" stroke="black" d="M380.63,-56.99C395.87,-60.7 415.65,-65.51 432.44,-69.59"/>
<polygon fill="black" stroke="black" points="431.89,-73.06 442.43,-72.02 433.54,-66.26 431.89,-73.06"/>
<text text-anchor="middle" x="411.5" y="-69.8" font-family="Times New Roman,serif" font-size="14.00">\*+/</text>
</g>
</g>
</svg>
