<?xml version="1.0" encoding="UTF-8" standalone="no"?>
<!DOCTYPE svg PUBLIC "-//W3C//DTD SVG 1.1//EN"
 "http://www.w3.org/Graphics/SVG/1.1/DTD/svg11.dtd">
<!-- Generated by graphviz version 2.47.3 (20210619.1520)
 -->
<!-- Title: merge_final_state Pages: 1 -->
<svg width="282pt" height="244pt"
 viewBox="0.00 0.00 282.00 244.00" xmlns="http://www.w3.org/2000/svg" xmlns:xlink="http://www.w3.org/1999/xlink">
<g id="graph0" class="graph" transform="scale(1 1) rotate(0) translate(4 240)">
<title>merge_final_state</title>
<polygon fill="white" stroke="transparent" points="-4,4 -4,-240 278,-240 278,4 -4,4"/>
<g id="clust1" class="cluster">
<title>cluster_origin</title>
<polygon fill="none" stroke="black" points="8,-122 8,-228 169,-228 169,-122 8,-122"/>
</g>
<g id="clust2" class="cluster">
<title>cluster_transform</title>
<polygon fill="none" stroke="black" points="8,-8 8,-114 266,-114 266,-8 8,-8"/>
</g>
<!-- 0 -->
<g id="node1" class="node">
<title>0</title>
<ellipse fill="none" stroke="black" cx="43" cy="-148" rx="27" ry="18"/>
<text text-anchor="middle" x="43" y="-144.3" font-family="Times New Roman,serif" font-size="14.00">0</text>
</g>
<!-- E1 -->
<g id="node2" class="node">
<title>E1</title>
<ellipse fill="none" stroke="black" cx="134" cy="-202" rx="27" ry="18"/>
<text text-anchor="middle" x="134" y="-198.3" font-family="Times New Roman,serif" font-size="14.00">E1</text>
</g>
<!-- 0&#45;&gt;E1 -->
<g id="edge1" class="edge">
<title>0&#45;&gt;E1</title>
<path fill="none" stroke="black" d="M63.75,-159.98C75.74,-167.26 91.23,-176.66 104.52,-184.72"/>
<polygon fill="black" stroke="black" points="102.94,-187.85 113.3,-190.05 106.57,-181.87 102.94,-187.85"/>
</g>
<!-- E2 -->
<g id="node3" class="node">
<title>E2</title>
<ellipse fill="none" stroke="black" cx="134" cy="-148" rx="27" ry="18"/>
<text text-anchor="middle" x="134" y="-144.3" font-family="Times New Roman,serif" font-size="14.00">E2</text>
</g>
<!-- 0&#45;&gt;E2 -->
<g id="edge2" class="edge">
<title>0&#45;&gt;E2</title>
<path fill="none" stroke="black" d="M70.22,-148C78.55,-148 87.91,-148 96.82,-148"/>
<polygon fill="black" stroke="black" points="96.97,-151.5 106.97,-148 96.97,-144.5 96.97,-151.5"/>
</g>
<!-- 1 -->
<g id="node5" class="node">
<title>1</title>
<ellipse fill="none" stroke="black" cx="134" cy="-88" rx="27" ry="18"/>
<text text-anchor="middle" x="134" y="-84.3" font-family="Times New Roman,serif" font-size="14.00">1</text>
</g>
<!-- 0&#45;&gt;1 -->
<g id="edge7" class="edge">
<title>0&#45;&gt;1</title>
<path fill="none" stroke="black" d="M82.56,-122C83.68,-121.25 84.8,-120.49 85.93,-119.73"/>
<polygon fill="black" stroke="black" points="88.1,-122.49 94.44,-114 84.19,-116.68 88.1,-122.49"/>
</g>
<!-- p0 -->
<g id="node4" class="node">
<title>p0</title>
<ellipse fill="none" stroke="black" cx="43" cy="-65" rx="27" ry="18"/>
<text text-anchor="middle" x="43" y="-61.3" font-family="Times New Roman,serif" font-size="14.00">0</text>
</g>
<!-- p0&#45;&gt;1 -->
<g id="edge3" class="edge">
<title>p0&#45;&gt;1</title>
<path fill="none" stroke="black" d="M68.32,-71.28C77.66,-73.7 88.51,-76.5 98.62,-79.11"/>
<polygon fill="black" stroke="black" points="97.84,-82.53 108.4,-81.64 99.59,-75.75 97.84,-82.53"/>
</g>
<!-- 2 -->
<g id="node6" class="node">
<title>2</title>
<ellipse fill="none" stroke="black" cx="134" cy="-34" rx="27" ry="18"/>
<text text-anchor="middle" x="134" y="-30.3" font-family="Times New Roman,serif" font-size="14.00">2</text>
</g>
<!-- p0&#45;&gt;2 -->
<g id="edge4" class="edge">
<title>p0&#45;&gt;2</title>
<path fill="none" stroke="black" d="M67.38,-56.86C77.4,-53.37 89.27,-49.23 100.15,-45.44"/>
<polygon fill="black" stroke="black" points="101.48,-48.69 109.77,-42.09 99.18,-42.07 101.48,-48.69"/>
</g>
<!-- E -->
<g id="node7" class="node">
<title>E</title>
<ellipse fill="none" stroke="black" cx="231" cy="-57" rx="27" ry="18"/>
<text text-anchor="middle" x="231" y="-53.3" font-family="Times New Roman,serif" font-size="14.00">E</text>
</g>
<!-- 1&#45;&gt;E -->
<g id="edge5" class="edge">
<title>1&#45;&gt;E</title>
<path fill="none" stroke="black" d="M158.48,-80.34C170.02,-76.57 184.11,-71.97 196.73,-67.86"/>
<polygon fill="black" stroke="black" points="198.04,-71.11 206.46,-64.68 195.87,-64.46 198.04,-71.11"/>
<text text-anchor="middle" x="182.5" y="-76.8" font-family="Times New Roman,serif" font-size="14.00">ε</text>
</g>
<!-- 2&#45;&gt;E -->
<g id="edge6" class="edge">
<title>2&#45;&gt;E</title>
<path fill="none" stroke="black" d="M160.56,-37.82C168.74,-39.23 177.79,-40.98 186,-43 189.45,-43.85 193.03,-44.83 196.58,-45.86"/>
<polygon fill="black" stroke="black" points="195.83,-49.29 206.42,-48.86 197.87,-42.59 195.83,-49.29"/>
<text text-anchor="middle" x="182.5" y="-46.8" font-family="Times New Roman,serif" font-size="14.00">ε</text>
</g>
</g>
</svg>
