<?xml version="1.0" encoding="UTF-8" standalone="no"?>
<!DOCTYPE svg PUBLIC "-//W3C//DTD SVG 1.1//EN"
 "http://www.w3.org/Graphics/SVG/1.1/DTD/svg11.dtd">
<!-- Generated by graphviz version 2.47.3 (20210619.1520)
 -->
<!-- Title: dfa Pages: 1 -->
<svg width="626pt" height="143pt"
 viewBox="0.00 0.00 626.00 142.51" xmlns="http://www.w3.org/2000/svg" xmlns:xlink="http://www.w3.org/1999/xlink">
<g id="graph0" class="graph" transform="scale(1 1) rotate(0) translate(4 138.51)">
<title>dfa</title>
<polygon fill="white" stroke="transparent" points="-4,4 -4,-138.51 622,-138.51 622,4 -4,4"/>
<!-- 0 -->
<g id="node1" class="node">
<title>0</title>
<ellipse fill="none" stroke="black" cx="27" cy="-55.51" rx="27" ry="18"/>
<text text-anchor="middle" x="27" y="-51.81" font-family="Times New Roman,serif" font-size="14.00">0</text>
</g>
<!-- 1 -->
<g id="node2" class="node">
<title>1</title>
<ellipse fill="none" stroke="black" cx="132" cy="-55.51" rx="27" ry="18"/>
<text text-anchor="middle" x="132" y="-51.81" font-family="Times New Roman,serif" font-size="14.00">1</text>
</g>
<!-- 0&#45;&gt;1 -->
<g id="edge1" class="edge">
<title>0&#45;&gt;1</title>
<path fill="none" stroke="black" d="M54.26,-55.51C66.49,-55.51 81.24,-55.51 94.52,-55.51"/>
<polygon fill="black" stroke="black" points="94.79,-59.01 104.79,-55.51 94.79,-52.01 94.79,-59.01"/>
<text text-anchor="middle" x="79.5" y="-59.31" font-family="Times New Roman,serif" font-size="14.00">/\*</text>
</g>
<!-- 1&#45;&gt;1 -->
<g id="edge2" class="edge">
<title>1&#45;&gt;1</title>
<path fill="none" stroke="black" d="M122.79,-72.55C120.91,-82.37 123.98,-91.51 132,-91.51 137.01,-91.51 140.09,-87.94 141.24,-82.86"/>
<polygon fill="black" stroke="black" points="144.74,-82.54 141.21,-72.55 137.74,-82.55 144.74,-82.54"/>
<text text-anchor="middle" x="132" y="-95.31" font-family="Times New Roman,serif" font-size="14.00">[^&quot;\*]</text>
</g>
<!-- 2 -->
<g id="node3" class="node">
<title>2</title>
<ellipse fill="none" stroke="black" cx="258" cy="-83.51" rx="27" ry="18"/>
<text text-anchor="middle" x="258" y="-79.81" font-family="Times New Roman,serif" font-size="14.00">2</text>
</g>
<!-- 1&#45;&gt;2 -->
<g id="edge3" class="edge">
<title>1&#45;&gt;2</title>
<path fill="none" stroke="black" d="M155.57,-64.69C162.37,-67.19 169.91,-69.71 177,-71.51 191.21,-75.12 207.13,-77.78 221.01,-79.67"/>
<polygon fill="black" stroke="black" points="220.8,-83.17 231.16,-80.96 221.68,-76.22 220.8,-83.17"/>
<text text-anchor="middle" x="195" y="-81.31" font-family="Times New Roman,serif" font-size="14.00">\*</text>
</g>
<!-- 3 -->
<g id="node4" class="node">
<title>3</title>
<ellipse fill="none" stroke="black" cx="355" cy="-22.51" rx="27" ry="18"/>
<text text-anchor="middle" x="355" y="-18.81" font-family="Times New Roman,serif" font-size="14.00">3</text>
</g>
<!-- 1&#45;&gt;3 -->
<g id="edge4" class="edge">
<title>1&#45;&gt;3</title>
<path fill="none" stroke="black" d="M157.06,-48.26C163.49,-46.51 170.47,-44.78 177,-43.51 225.38,-34.09 282.08,-28.27 318.01,-25.21"/>
<polygon fill="black" stroke="black" points="318.34,-28.69 328.02,-24.38 317.76,-21.71 318.34,-28.69"/>
<text text-anchor="middle" x="258" y="-37.31" font-family="Times New Roman,serif" font-size="14.00">&quot;</text>
</g>
<!-- 2&#45;&gt;1 -->
<g id="edge5" class="edge">
<title>2&#45;&gt;1</title>
<path fill="none" stroke="black" d="M241.59,-69.1C233.68,-62.69 223.51,-55.84 213,-52.51 198.85,-48.03 182.59,-47.8 168.43,-49.07"/>
<polygon fill="black" stroke="black" points="167.62,-45.64 158.09,-50.28 168.43,-52.59 167.62,-45.64"/>
<text text-anchor="middle" x="195" y="-56.31" font-family="Times New Roman,serif" font-size="14.00">[^&quot;\*/]</text>
</g>
<!-- 2&#45;&gt;2 -->
<g id="edge6" class="edge">
<title>2&#45;&gt;2</title>
<path fill="none" stroke="black" d="M249.43,-100.92C247.83,-110.6 250.69,-119.51 258,-119.51 262.57,-119.51 265.4,-116.03 266.49,-111.05"/>
<polygon fill="black" stroke="black" points="269.99,-110.95 266.57,-100.92 262.99,-110.89 269.99,-110.95"/>
<text text-anchor="middle" x="258" y="-123.31" font-family="Times New Roman,serif" font-size="14.00">\*</text>
</g>
<!-- 2&#45;&gt;3 -->
<g id="edge7" class="edge">
<title>2&#45;&gt;3</title>
<path fill="none" stroke="black" d="M278.22,-71.16C292,-62.32 310.77,-50.27 326.18,-40.37"/>
<polygon fill="black" stroke="black" points="328.28,-43.18 334.8,-34.83 324.5,-37.29 328.28,-43.18"/>
<text text-anchor="middle" x="306.5" y="-58.31" font-family="Times New Roman,serif" font-size="14.00">&quot;</text>
</g>
<!-- e -->
<g id="node5" class="node">
<title>e</title>
<ellipse fill="none" stroke="black" cx="591" cy="-62.51" rx="27" ry="18"/>
<text text-anchor="middle" x="591" y="-58.81" font-family="Times New Roman,serif" font-size="14.00">e</text>
</g>
<!-- 2&#45;&gt;e -->
<g id="edge8" class="edge">
<title>2&#45;&gt;e</title>
<path fill="none" stroke="black" d="M284.77,-85.87C332.36,-89.69 437.1,-95.55 524,-82.51 535.13,-80.84 546.98,-77.7 557.52,-74.4"/>
<polygon fill="black" stroke="black" points="558.76,-77.67 567.16,-71.22 556.57,-71.02 558.76,-77.67"/>
<text text-anchor="middle" x="426" y="-94.31" font-family="Times New Roman,serif" font-size="14.00">/</text>
</g>
<!-- 3&#45;&gt;3 -->
<g id="edge9" class="edge">
<title>3&#45;&gt;3</title>
<path fill="none" stroke="black" d="M346.43,-39.92C344.83,-49.6 347.69,-58.51 355,-58.51 359.57,-58.51 362.4,-55.03 363.49,-50.05"/>
<polygon fill="black" stroke="black" points="366.99,-49.95 363.57,-39.92 359.99,-49.89 366.99,-49.95"/>
<text text-anchor="middle" x="355" y="-62.31" font-family="Times New Roman,serif" font-size="14.00">[^\*]</text>
</g>
<!-- 4 -->
<g id="node6" class="node">
<title>4</title>
<ellipse fill="none" stroke="black" cx="497" cy="-22.51" rx="27" ry="18"/>
<text text-anchor="middle" x="497" y="-18.81" font-family="Times New Roman,serif" font-size="14.00">4</text>
</g>
<!-- 3&#45;&gt;4 -->
<g id="edge10" class="edge">
<title>3&#45;&gt;4</title>
<path fill="none" stroke="black" d="M382,-22.51C403.77,-22.51 435.08,-22.51 459.38,-22.51"/>
<polygon fill="black" stroke="black" points="459.66,-26.01 469.66,-22.51 459.66,-19.01 459.66,-26.01"/>
<text text-anchor="middle" x="426" y="-26.31" font-family="Times New Roman,serif" font-size="14.00">\*</text>
</g>
<!-- 4&#45;&gt;3 -->
<g id="edge11" class="edge">
<title>4&#45;&gt;3</title>
<path fill="none" stroke="black" d="M475.09,-11.41C467.97,-8.2 459.82,-5.13 452,-3.51 429.37,1.17 422.63,1.17 400,-3.51 395.48,-4.44 390.85,-5.87 386.37,-7.52"/>
<polygon fill="black" stroke="black" points="384.83,-4.37 376.91,-11.41 387.49,-10.84 384.83,-4.37"/>
<text text-anchor="middle" x="426" y="-7.31" font-family="Times New Roman,serif" font-size="14.00">[^\*/]|/.*&quot;</text>
</g>
<!-- 4&#45;&gt;e -->
<g id="edge13" class="edge">
<title>4&#45;&gt;e</title>
<path fill="none" stroke="black" d="M520.27,-32.19C531.8,-37.2 546.06,-43.4 558.68,-48.89"/>
<polygon fill="black" stroke="black" points="557.37,-52.14 567.93,-52.91 560.16,-45.72 557.37,-52.14"/>
<text text-anchor="middle" x="544" y="-46.31" font-family="Times New Roman,serif" font-size="14.00">/</text>
</g>
<!-- 4&#45;&gt;4 -->
<g id="edge12" class="edge">
<title>4&#45;&gt;4</title>
<path fill="none" stroke="black" d="M488.79,-39.92C487.25,-49.6 489.99,-58.51 497,-58.51 501.38,-58.51 504.09,-55.03 505.14,-50.05"/>
<polygon fill="black" stroke="black" points="508.64,-49.94 505.21,-39.92 501.64,-49.89 508.64,-49.94"/>
<text text-anchor="middle" x="497" y="-62.31" font-family="Times New Roman,serif" font-size="14.00">\*</text>
</g>
</g>
</svg>
