<?xml version="1.0" encoding="UTF-8" standalone="no"?>
<!DOCTYPE svg PUBLIC "-//W3C//DTD SVG 1.1//EN"
 "http://www.w3.org/Graphics/SVG/1.1/DTD/svg11.dtd">
<!-- Generated by graphviz version 2.47.3 (20210619.1520)
 -->
<!-- Title: dfa Pages: 1 -->
<svg width="394pt" height="112pt"
 viewBox="0.00 0.00 394.00 112.00" xmlns="http://www.w3.org/2000/svg" xmlns:xlink="http://www.w3.org/1999/xlink">
<g id="graph0" class="graph" transform="scale(1 1) rotate(0) translate(4 108)">
<title>dfa</title>
<polygon fill="white" stroke="transparent" points="-4,4 -4,-108 390,-108 390,4 -4,4"/>
<!-- 0 -->
<g id="node1" class="node">
<title>0</title>
<ellipse fill="none" stroke="black" cx="27" cy="-18" rx="27" ry="18"/>
<text text-anchor="middle" x="27" y="-14.3" font-family="Times New Roman,serif" font-size="14.00">0</text>
</g>
<!-- 1 -->
<g id="node2" class="node">
<title>1</title>
<ellipse fill="none" stroke="black" cx="132" cy="-18" rx="27" ry="18"/>
<text text-anchor="middle" x="132" y="-14.3" font-family="Times New Roman,serif" font-size="14.00">1</text>
</g>
<!-- 0&#45;&gt;1 -->
<g id="edge1" class="edge">
<title>0&#45;&gt;1</title>
<path fill="none" stroke="black" d="M54.26,-18C66.49,-18 81.24,-18 94.52,-18"/>
<polygon fill="black" stroke="black" points="94.79,-21.5 104.79,-18 94.79,-14.5 94.79,-21.5"/>
<text text-anchor="middle" x="79.5" y="-21.8" font-family="Times New Roman,serif" font-size="14.00">/\*</text>
</g>
<!-- 1&#45;&gt;1 -->
<g id="edge2" class="edge">
<title>1&#45;&gt;1</title>
<path fill="none" stroke="black" d="M122.79,-35.04C120.91,-44.86 123.98,-54 132,-54 137.01,-54 140.09,-50.43 141.24,-45.35"/>
<polygon fill="black" stroke="black" points="144.74,-45.03 141.21,-35.04 137.74,-45.05 144.74,-45.03"/>
<text text-anchor="middle" x="132" y="-57.8" font-family="Times New Roman,serif" font-size="14.00">[^&quot;\*]|\*+[^&quot;\*/]</text>
</g>
<!-- 3 -->
<g id="node3" class="node">
<title>3</title>
<ellipse fill="none" stroke="black" cx="246" cy="-53" rx="27" ry="18"/>
<text text-anchor="middle" x="246" y="-49.3" font-family="Times New Roman,serif" font-size="14.00">3</text>
</g>
<!-- 1&#45;&gt;3 -->
<g id="edge3" class="edge">
<title>1&#45;&gt;3</title>
<path fill="none" stroke="black" d="M156.75,-25.42C172.64,-30.39 193.78,-36.99 211.39,-42.5"/>
<polygon fill="black" stroke="black" points="210.69,-45.95 221.28,-45.59 212.78,-39.26 210.69,-45.95"/>
<text text-anchor="middle" x="189" y="-41.8" font-family="Times New Roman,serif" font-size="14.00">\**&quot;</text>
</g>
<!-- e -->
<g id="node4" class="node">
<title>e</title>
<ellipse fill="none" stroke="black" cx="359" cy="-18" rx="27" ry="18"/>
<text text-anchor="middle" x="359" y="-14.3" font-family="Times New Roman,serif" font-size="14.00">e</text>
</g>
<!-- 1&#45;&gt;e -->
<g id="edge4" class="edge">
<title>1&#45;&gt;e</title>
<path fill="none" stroke="black" d="M158.93,-15.34C175.98,-13.72 198.79,-11.82 219,-11 242.98,-10.03 249.02,-10.01 273,-11 289.11,-11.66 306.89,-13.03 322.01,-14.38"/>
<polygon fill="black" stroke="black" points="321.71,-17.87 331.99,-15.3 322.36,-10.9 321.71,-17.87"/>
<text text-anchor="middle" x="246" y="-14.8" font-family="Times New Roman,serif" font-size="14.00">\*+/</text>
</g>
<!-- 3&#45;&gt;3 -->
<g id="edge5" class="edge">
<title>3&#45;&gt;3</title>
<path fill="none" stroke="black" d="M236.08,-70.04C234.05,-79.86 237.36,-89 246,-89 251.4,-89 254.72,-85.43 255.95,-80.35"/>
<polygon fill="black" stroke="black" points="259.45,-80.03 255.92,-70.04 252.45,-80.05 259.45,-80.03"/>
<text text-anchor="middle" x="246" y="-92.8" font-family="Times New Roman,serif" font-size="14.00">[^\*]|\*+([^\*/]|/.*&quot;)</text>
</g>
<!-- 3&#45;&gt;e -->
<g id="edge6" class="edge">
<title>3&#45;&gt;e</title>
<path fill="none" stroke="black" d="M270.81,-45.49C286.47,-40.56 307.18,-34.02 324.49,-28.57"/>
<polygon fill="black" stroke="black" points="325.74,-31.84 334.23,-25.5 323.64,-25.17 325.74,-31.84"/>
<text text-anchor="middle" x="302.5" y="-41.8" font-family="Times New Roman,serif" font-size="14.00">\*+/</text>
</g>
</g>
</svg>
