<?xml version="1.0" encoding="UTF-8" standalone="no"?>
<!DOCTYPE svg PUBLIC "-//W3C//DTD SVG 1.1//EN"
 "http://www.w3.org/Graphics/SVG/1.1/DTD/svg11.dtd">
<!-- Generated by graphviz version 2.47.3 (20210619.1520)
 -->
<!-- Title: dfa Pages: 1 -->
<svg width="695pt" height="174pt"
 viewBox="0.00 0.00 695.00 173.78" xmlns="http://www.w3.org/2000/svg" xmlns:xlink="http://www.w3.org/1999/xlink">
<g id="graph0" class="graph" transform="scale(1 1) rotate(0) translate(4 169.78)">
<title>dfa</title>
<polygon fill="white" stroke="transparent" points="-4,4 -4,-169.78 691,-169.78 691,4 -4,4"/>
<!-- 0 -->
<g id="node1" class="node">
<title>0</title>
<ellipse fill="none" stroke="black" cx="27" cy="-86.78" rx="27" ry="18"/>
<text text-anchor="middle" x="27" y="-83.08" font-family="Times New Roman,serif" font-size="14.00">0</text>
</g>
<!-- 1 -->
<g id="node2" class="node">
<title>1</title>
<ellipse fill="none" stroke="black" cx="132" cy="-86.78" rx="27" ry="18"/>
<text text-anchor="middle" x="132" y="-83.08" font-family="Times New Roman,serif" font-size="14.00">1</text>
</g>
<!-- 0&#45;&gt;1 -->
<g id="edge1" class="edge">
<title>0&#45;&gt;1</title>
<path fill="none" stroke="black" d="M54.26,-86.78C66.49,-86.78 81.24,-86.78 94.52,-86.78"/>
<polygon fill="black" stroke="black" points="94.79,-90.28 104.79,-86.78 94.79,-83.28 94.79,-90.28"/>
<text text-anchor="middle" x="79.5" y="-90.58" font-family="Times New Roman,serif" font-size="14.00">/\*</text>
</g>
<!-- 1&#45;&gt;1 -->
<g id="edge2" class="edge">
<title>1&#45;&gt;1</title>
<path fill="none" stroke="black" d="M122.79,-103.82C120.91,-113.64 123.98,-122.78 132,-122.78 137.01,-122.78 140.09,-119.21 141.24,-114.13"/>
<polygon fill="black" stroke="black" points="144.74,-113.81 141.21,-103.82 137.74,-113.83 144.74,-113.81"/>
<text text-anchor="middle" x="132" y="-126.58" font-family="Times New Roman,serif" font-size="14.00">[^&quot;\*]</text>
</g>
<!-- 2 -->
<g id="node3" class="node">
<title>2</title>
<ellipse fill="none" stroke="black" cx="258" cy="-114.78" rx="27" ry="18"/>
<text text-anchor="middle" x="258" y="-111.08" font-family="Times New Roman,serif" font-size="14.00">2</text>
</g>
<!-- 1&#45;&gt;2 -->
<g id="edge3" class="edge">
<title>1&#45;&gt;2</title>
<path fill="none" stroke="black" d="M155.57,-95.97C162.37,-98.47 169.91,-100.98 177,-102.78 191.21,-106.39 207.13,-109.05 221.01,-110.94"/>
<polygon fill="black" stroke="black" points="220.8,-114.44 231.16,-112.23 221.68,-107.5 220.8,-114.44"/>
<text text-anchor="middle" x="195" y="-112.58" font-family="Times New Roman,serif" font-size="14.00">\*</text>
</g>
<!-- 3 -->
<g id="node4" class="node">
<title>3</title>
<ellipse fill="none" stroke="black" cx="355" cy="-53.78" rx="27" ry="18"/>
<text text-anchor="middle" x="355" y="-50.08" font-family="Times New Roman,serif" font-size="14.00">3</text>
</g>
<!-- 1&#45;&gt;3 -->
<g id="edge4" class="edge">
<title>1&#45;&gt;3</title>
<path fill="none" stroke="black" d="M157.06,-79.53C163.49,-77.78 170.47,-76.05 177,-74.78 225.38,-65.37 282.08,-59.54 318.01,-56.48"/>
<polygon fill="black" stroke="black" points="318.34,-59.96 328.02,-55.65 317.76,-52.99 318.34,-59.96"/>
<text text-anchor="middle" x="258" y="-68.58" font-family="Times New Roman,serif" font-size="14.00">&quot;</text>
</g>
<!-- 2&#45;&gt;1 -->
<g id="edge5" class="edge">
<title>2&#45;&gt;1</title>
<path fill="none" stroke="black" d="M241.59,-100.37C233.68,-93.96 223.51,-87.11 213,-83.78 198.85,-79.3 182.59,-79.08 168.43,-80.34"/>
<polygon fill="black" stroke="black" points="167.62,-76.91 158.09,-81.55 168.43,-83.87 167.62,-76.91"/>
<text text-anchor="middle" x="195" y="-87.58" font-family="Times New Roman,serif" font-size="14.00">[^&quot;\*/]</text>
</g>
<!-- 2&#45;&gt;2 -->
<g id="edge6" class="edge">
<title>2&#45;&gt;2</title>
<path fill="none" stroke="black" d="M249.43,-132.19C247.83,-141.87 250.69,-150.78 258,-150.78 262.57,-150.78 265.4,-147.3 266.49,-142.33"/>
<polygon fill="black" stroke="black" points="269.99,-142.22 266.57,-132.19 262.99,-142.16 269.99,-142.22"/>
<text text-anchor="middle" x="258" y="-154.58" font-family="Times New Roman,serif" font-size="14.00">\*</text>
</g>
<!-- 2&#45;&gt;3 -->
<g id="edge7" class="edge">
<title>2&#45;&gt;3</title>
<path fill="none" stroke="black" d="M278.22,-102.44C292,-93.59 310.77,-81.54 326.18,-71.64"/>
<polygon fill="black" stroke="black" points="328.28,-74.46 334.8,-66.11 324.5,-68.57 328.28,-74.46"/>
<text text-anchor="middle" x="306.5" y="-89.58" font-family="Times New Roman,serif" font-size="14.00">&quot;</text>
</g>
<!-- e -->
<g id="node5" class="node">
<title>e</title>
<ellipse fill="none" stroke="black" cx="660" cy="-89.78" rx="27" ry="18"/>
<text text-anchor="middle" x="660" y="-86.08" font-family="Times New Roman,serif" font-size="14.00">e</text>
</g>
<!-- 2&#45;&gt;e -->
<g id="edge8" class="edge">
<title>2&#45;&gt;e</title>
<path fill="none" stroke="black" d="M282.94,-122.29C302,-127.6 329.44,-133.78 354,-133.78 354,-133.78 354,-133.78 570,-133.78 593.48,-133.78 617.18,-121.32 634.21,-109.66"/>
<polygon fill="black" stroke="black" points="636.41,-112.39 642.47,-103.7 632.32,-106.71 636.41,-112.39"/>
<text text-anchor="middle" x="475" y="-137.58" font-family="Times New Roman,serif" font-size="14.00">/</text>
</g>
<!-- 3&#45;&gt;3 -->
<g id="edge9" class="edge">
<title>3&#45;&gt;3</title>
<path fill="none" stroke="black" d="M346.43,-71.19C344.83,-80.87 347.69,-89.78 355,-89.78 359.57,-89.78 362.4,-86.3 363.49,-81.33"/>
<polygon fill="black" stroke="black" points="366.99,-81.22 363.57,-71.19 359.99,-81.16 366.99,-81.22"/>
<text text-anchor="middle" x="355" y="-93.58" font-family="Times New Roman,serif" font-size="14.00">[^\*]</text>
</g>
<!-- 4 -->
<g id="node6" class="node">
<title>4</title>
<ellipse fill="none" stroke="black" cx="475" cy="-46.78" rx="27" ry="18"/>
<text text-anchor="middle" x="475" y="-43.08" font-family="Times New Roman,serif" font-size="14.00">4</text>
</g>
<!-- 3&#45;&gt;4 -->
<g id="edge10" class="edge">
<title>3&#45;&gt;4</title>
<path fill="none" stroke="black" d="M382.07,-54.78C396.26,-55.08 414.12,-55.04 430,-53.78 432.73,-53.57 435.54,-53.28 438.36,-52.94"/>
<polygon fill="black" stroke="black" points="439.06,-56.37 448.49,-51.54 438.1,-49.44 439.06,-56.37"/>
<text text-anchor="middle" x="415" y="-58.58" font-family="Times New Roman,serif" font-size="14.00">\*</text>
</g>
<!-- 4&#45;&gt;3 -->
<g id="edge11" class="edge">
<title>4&#45;&gt;3</title>
<path fill="none" stroke="black" d="M450.58,-38.62C435.97,-34.6 416.82,-31.3 400,-34.78 395.48,-35.72 390.85,-37.14 386.37,-38.79"/>
<polygon fill="black" stroke="black" points="384.83,-35.64 376.91,-42.69 387.49,-42.12 384.83,-35.64"/>
<text text-anchor="middle" x="415" y="-38.58" font-family="Times New Roman,serif" font-size="14.00">[^\*/]</text>
</g>
<!-- 4&#45;&gt;4 -->
<g id="edge12" class="edge">
<title>4&#45;&gt;4</title>
<path fill="none" stroke="black" d="M466.79,-64.19C465.25,-73.87 467.99,-82.78 475,-82.78 479.38,-82.78 482.09,-79.3 483.14,-74.33"/>
<polygon fill="black" stroke="black" points="486.64,-74.22 483.21,-64.19 479.64,-74.16 486.64,-74.22"/>
<text text-anchor="middle" x="475" y="-86.58" font-family="Times New Roman,serif" font-size="14.00">\*</text>
</g>
<!-- 5 -->
<g id="node7" class="node">
<title>5</title>
<ellipse fill="none" stroke="black" cx="569" cy="-46.78" rx="27" ry="18"/>
<text text-anchor="middle" x="569" y="-43.08" font-family="Times New Roman,serif" font-size="14.00">5</text>
</g>
<!-- 4&#45;&gt;5 -->
<g id="edge13" class="edge">
<title>4&#45;&gt;5</title>
<path fill="none" stroke="black" d="M502.12,-46.78C511.34,-46.78 521.89,-46.78 531.8,-46.78"/>
<polygon fill="black" stroke="black" points="531.82,-50.28 541.82,-46.78 531.82,-43.28 531.82,-50.28"/>
<text text-anchor="middle" x="522" y="-50.58" font-family="Times New Roman,serif" font-size="14.00">/</text>
</g>
<!-- 5&#45;&gt;3 -->
<g id="edge14" class="edge">
<title>5&#45;&gt;3</title>
<path fill="none" stroke="black" d="M551.67,-32.63C539.06,-22.68 520.65,-10.21 502,-4.78 478.96,1.93 471.31,0.93 448,-4.78 424.35,-10.57 400.15,-23.81 382.5,-35.07"/>
<polygon fill="black" stroke="black" points="380.34,-32.3 373.91,-40.73 384.19,-38.15 380.34,-32.3"/>
<text text-anchor="middle" x="475" y="-8.58" font-family="Times New Roman,serif" font-size="14.00">.*&quot;</text>
</g>
<!-- 5&#45;&gt;e -->
<g id="edge15" class="edge">
<title>5&#45;&gt;e</title>
<path fill="none" stroke="black" d="M591.54,-57.19C602.59,-62.53 616.22,-69.11 628.34,-74.97"/>
<polygon fill="black" stroke="black" points="627.13,-78.27 637.65,-79.47 630.17,-71.97 627.13,-78.27"/>
</g>
</g>
</svg>
