<?xml version="1.0" encoding="UTF-8" standalone="no"?>
<!DOCTYPE svg PUBLIC "-//W3C//DTD SVG 1.1//EN"
 "http://www.w3.org/Graphics/SVG/1.1/DTD/svg11.dtd">
<!-- Generated by graphviz version 2.47.3 (20210619.1520)
 -->
<!-- Title: eliminate_in_edge_of_start_state Pages: 1 -->
<svg width="373pt" height="136pt"
 viewBox="0.00 0.00 373.00 136.00" xmlns="http://www.w3.org/2000/svg" xmlns:xlink="http://www.w3.org/1999/xlink">
<g id="graph0" class="graph" transform="scale(1 1) rotate(0) translate(4 132)">
<title>eliminate_in_edge_of_start_state</title>
<polygon fill="white" stroke="transparent" points="-4,4 -4,-132 369,-132 369,4 -4,4"/>
<g id="clust1" class="cluster">
<title>cluster_origin</title>
<polygon fill="none" stroke="black" points="8,-68 8,-120 169,-120 169,-68 8,-68"/>
</g>
<g id="clust2" class="cluster">
<title>cluster_transform</title>
<polygon fill="none" stroke="black" points="99,-8 99,-60 357,-60 357,-8 99,-8"/>
</g>
<!-- 0 -->
<g id="node1" class="node">
<title>0</title>
<ellipse fill="none" stroke="black" cx="43" cy="-94" rx="27" ry="18"/>
<text text-anchor="middle" x="43" y="-90.3" font-family="Times New Roman,serif" font-size="14.00">0</text>
</g>
<!-- 1 -->
<g id="node2" class="node">
<title>1</title>
<ellipse fill="none" stroke="black" cx="134" cy="-94" rx="27" ry="18"/>
<text text-anchor="middle" x="134" y="-90.3" font-family="Times New Roman,serif" font-size="14.00">1</text>
</g>
<!-- 0&#45;&gt;1 -->
<g id="edge1" class="edge">
<title>0&#45;&gt;1</title>
<path fill="none" stroke="black" d="M68.79,-87.88C77.86,-87.26 88.29,-87.1 98.07,-87.39"/>
<polygon fill="black" stroke="black" points="98.18,-90.9 108.34,-87.89 98.52,-83.91 98.18,-90.9"/>
</g>
<!-- 2 -->
<g id="node3" class="node">
<title>2</title>
<ellipse fill="none" stroke="black" cx="134" cy="-34" rx="27" ry="18"/>
<text text-anchor="middle" x="134" y="-30.3" font-family="Times New Roman,serif" font-size="14.00">0&#39;</text>
</g>
<!-- 0&#45;&gt;2 -->
<g id="edge6" class="edge">
<title>0&#45;&gt;2</title>
<path fill="none" stroke="black" d="M82.56,-68C85.21,-66.22 87.88,-64.42 90.55,-62.62"/>
<polygon fill="black" stroke="black" points="92.67,-65.41 99,-56.92 88.76,-59.61 92.67,-65.41"/>
</g>
<!-- 1&#45;&gt;0 -->
<g id="edge2" class="edge">
<title>1&#45;&gt;0</title>
<path fill="none" stroke="black" d="M108.34,-100.11C99.29,-100.73 88.86,-100.9 79.07,-100.61"/>
<polygon fill="black" stroke="black" points="78.95,-97.1 68.79,-100.12 78.61,-104.1 78.95,-97.1"/>
</g>
<!-- 3 -->
<g id="node4" class="node">
<title>3</title>
<ellipse fill="none" stroke="black" cx="231" cy="-34" rx="27" ry="18"/>
<text text-anchor="middle" x="231" y="-30.3" font-family="Times New Roman,serif" font-size="14.00">0</text>
</g>
<!-- 2&#45;&gt;3 -->
<g id="edge3" class="edge">
<title>2&#45;&gt;3</title>
<path fill="none" stroke="black" d="M161.21,-34C171.28,-34 182.96,-34 193.81,-34"/>
<polygon fill="black" stroke="black" points="193.87,-37.5 203.87,-34 193.87,-30.5 193.87,-37.5"/>
<text text-anchor="middle" x="182.5" y="-37.8" font-family="Times New Roman,serif" font-size="14.00">ε</text>
</g>
<!-- 4 -->
<g id="node5" class="node">
<title>4</title>
<ellipse fill="none" stroke="black" cx="322" cy="-34" rx="27" ry="18"/>
<text text-anchor="middle" x="322" y="-30.3" font-family="Times New Roman,serif" font-size="14.00">1</text>
</g>
<!-- 3&#45;&gt;4 -->
<g id="edge4" class="edge">
<title>3&#45;&gt;4</title>
<path fill="none" stroke="black" d="M256.79,-27.88C265.86,-27.26 276.29,-27.1 286.07,-27.39"/>
<polygon fill="black" stroke="black" points="286.18,-30.9 296.34,-27.89 286.52,-23.91 286.18,-30.9"/>
</g>
<!-- 4&#45;&gt;3 -->
<g id="edge5" class="edge">
<title>4&#45;&gt;3</title>
<path fill="none" stroke="black" d="M296.34,-40.11C287.29,-40.73 276.86,-40.9 267.07,-40.61"/>
<polygon fill="black" stroke="black" points="266.95,-37.1 256.79,-40.12 266.61,-44.1 266.95,-37.1"/>
</g>
</g>
</svg>
