<?xml version="1.0" encoding="UTF-8" standalone="no"?>
<!DOCTYPE svg PUBLIC "-//W3C//DTD SVG 1.1//EN"
 "http://www.w3.org/Graphics/SVG/1.1/DTD/svg11.dtd">
<!-- Generated by graphviz version 2.47.3 (20210619.1520)
 -->
<!-- Title: eliminate_out_of_final_state Pages: 1 -->
<svg width="373pt" height="190pt"
 viewBox="0.00 0.00 373.00 190.00" xmlns="http://www.w3.org/2000/svg" xmlns:xlink="http://www.w3.org/1999/xlink">
<g id="graph0" class="graph" transform="scale(1 1) rotate(0) translate(4 186)">
<title>eliminate_out_of_final_state</title>
<polygon fill="white" stroke="transparent" points="-4,4 -4,-186 369,-186 369,4 -4,4"/>
<g id="clust1" class="cluster">
<title>cluster_origin</title>
<polygon fill="none" stroke="black" points="8,-122 8,-174 260,-174 260,-122 8,-122"/>
</g>
<g id="clust2" class="cluster">
<title>cluster_transform</title>
<polygon fill="none" stroke="black" points="99,-8 99,-114 357,-114 357,-8 99,-8"/>
</g>
<!-- 0 -->
<g id="node1" class="node">
<title>0</title>
<ellipse fill="none" stroke="black" cx="43" cy="-148" rx="27" ry="18"/>
<text text-anchor="middle" x="43" y="-144.3" font-family="Times New Roman,serif" font-size="14.00">0</text>
</g>
<!-- E1 -->
<g id="node2" class="node">
<title>E1</title>
<ellipse fill="none" stroke="black" cx="134" cy="-148" rx="27" ry="18"/>
<text text-anchor="middle" x="134" y="-144.3" font-family="Times New Roman,serif" font-size="14.00">E1</text>
</g>
<!-- 0&#45;&gt;E1 -->
<g id="edge1" class="edge">
<title>0&#45;&gt;E1</title>
<path fill="none" stroke="black" d="M70.22,-148C78.55,-148 87.91,-148 96.82,-148"/>
<polygon fill="black" stroke="black" points="96.97,-151.5 106.97,-148 96.97,-144.5 96.97,-151.5"/>
</g>
<!-- 3 -->
<g id="node4" class="node">
<title>3</title>
<ellipse fill="none" stroke="black" cx="134" cy="-88" rx="27" ry="18"/>
<text text-anchor="middle" x="134" y="-84.3" font-family="Times New Roman,serif" font-size="14.00">0</text>
</g>
<!-- 0&#45;&gt;3 -->
<g id="edge6" class="edge">
<title>0&#45;&gt;3</title>
<path fill="none" stroke="black" d="M82.56,-122C85.21,-120.22 87.88,-118.42 90.55,-116.62"/>
<polygon fill="black" stroke="black" points="92.67,-119.41 99,-110.92 88.76,-113.61 92.67,-119.41"/>
</g>
<!-- 2 -->
<g id="node3" class="node">
<title>2</title>
<ellipse fill="none" stroke="black" cx="225" cy="-148" rx="27" ry="18"/>
<text text-anchor="middle" x="225" y="-144.3" font-family="Times New Roman,serif" font-size="14.00">2</text>
</g>
<!-- E1&#45;&gt;2 -->
<g id="edge2" class="edge">
<title>E1&#45;&gt;2</title>
<path fill="none" stroke="black" d="M161.22,-148C169.55,-148 178.91,-148 187.82,-148"/>
<polygon fill="black" stroke="black" points="187.97,-151.5 197.97,-148 187.97,-144.5 187.97,-151.5"/>
</g>
<!-- 1 -->
<g id="node6" class="node">
<title>1</title>
<ellipse fill="none" stroke="black" cx="225" cy="-88" rx="27" ry="18"/>
<text text-anchor="middle" x="225" y="-84.3" font-family="Times New Roman,serif" font-size="14.00">1</text>
</g>
<!-- 3&#45;&gt;1 -->
<g id="edge3" class="edge">
<title>3&#45;&gt;1</title>
<path fill="none" stroke="black" d="M161.22,-88C169.55,-88 178.91,-88 187.82,-88"/>
<polygon fill="black" stroke="black" points="187.97,-91.5 197.97,-88 187.97,-84.5 187.97,-91.5"/>
</g>
<!-- 4 -->
<g id="node5" class="node">
<title>4</title>
<ellipse fill="none" stroke="black" cx="322" cy="-34" rx="27" ry="18"/>
<text text-anchor="middle" x="322" y="-30.3" font-family="Times New Roman,serif" font-size="14.00">2</text>
</g>
<!-- 1&#45;&gt;4 -->
<g id="edge4" class="edge">
<title>1&#45;&gt;4</title>
<path fill="none" stroke="black" d="M246.15,-76.55C259.5,-68.96 277.22,-58.88 292.07,-50.44"/>
<polygon fill="black" stroke="black" points="293.92,-53.42 300.88,-45.44 290.46,-47.33 293.92,-53.42"/>
</g>
<!-- E -->
<g id="node7" class="node">
<title>E</title>
<ellipse fill="none" stroke="black" cx="322" cy="-88" rx="27" ry="18"/>
<text text-anchor="middle" x="322" y="-84.3" font-family="Times New Roman,serif" font-size="14.00">E</text>
</g>
<!-- 1&#45;&gt;E -->
<g id="edge5" class="edge">
<title>1&#45;&gt;E</title>
<path fill="none" stroke="black" d="M252.21,-88C262.28,-88 273.96,-88 284.81,-88"/>
<polygon fill="black" stroke="black" points="284.87,-91.5 294.87,-88 284.87,-84.5 284.87,-91.5"/>
<text text-anchor="middle" x="273.5" y="-91.8" font-family="Times New Roman,serif" font-size="14.00">ε</text>
</g>
</g>
</svg>
